<svg width="90" height="79" viewBox="0 0 90 79" fill="none" xmlns="http://www.w3.org/2000/svg">
<path d="M25.7502 51.0207C25.7502 51.2969 25.9741 51.5207 26.2502 51.5207C26.5264 51.5207 26.7502 51.2969 26.7502 51.0207H25.7502ZM63.2502 51.0207C63.2502 51.2969 63.4741 51.5207 63.7502 51.5207C64.0264 51.5207 64.2502 51.2969 64.2502 51.0207H63.2502ZM54.0287 44.9252L54.2872 45.3533L54.2872 45.3533L54.0287 44.9252ZM35.9717 44.9252L35.7133 45.3533L35.7133 45.3533L35.9717 44.9252ZM45 40.6458C38.9997 40.6458 34.25 36.3892 34.25 31.2708H33.25C33.25 37.06 38.5739 41.6458 45 41.6458V40.6458ZM55.75 31.2708C55.75 36.3892 51.0003 40.6458 45 40.6458V41.6458C51.4261 41.6458 56.75 37.06 56.75 31.2708H55.75ZM45 21.8958C51.0003 21.8958 55.75 26.1524 55.75 31.2708H56.75C56.75 25.4816 51.4261 20.8958 45 20.8958V21.8958ZM45 20.8958C38.5739 20.8958 33.25 25.4816 33.25 31.2708H34.25C34.25 26.1524 38.9997 21.8958 45 21.8958V20.8958ZM45 65.3333C28.6444 65.3333 15.5 53.7081 15.5 39.5H14.5C14.5 54.3788 28.2185 66.3333 45 66.3333V65.3333ZM74.5 39.5C74.5 53.7081 61.3556 65.3333 45 65.3333V66.3333C61.7814 66.3333 75.5 54.3788 75.5 39.5H74.5ZM45 13.6666C61.3556 13.6666 74.5 25.2918 74.5 39.5H75.5C75.5 24.6211 61.7814 12.6666 45 12.6666V13.6666ZM45 12.6666C28.2185 12.6666 14.5 24.6211 14.5 39.5H15.5C15.5 25.2918 28.6444 13.6666 45 13.6666V12.6666ZM26.7502 51.0207C26.7502 47.7496 30.0262 44.9374 34.2859 44.9374V43.9374C29.6696 43.9374 25.7502 47.0201 25.7502 51.0207H26.7502ZM55.7145 44.9374C59.9742 44.9374 63.2502 47.7496 63.2502 51.0207H64.2502C64.2502 47.0201 60.3308 43.9374 55.7145 43.9374V44.9374ZM53.7703 44.4972C52.0737 45.5215 49.9675 46.1322 47.6788 46.1322V47.1322C50.1438 47.1322 52.4297 46.4748 54.2872 45.3533L53.7703 44.4972ZM47.6788 46.1322H42.3216V47.1322H47.6788V46.1322ZM42.3216 46.1322C40.033 46.1322 37.9267 45.5215 36.2301 44.4972L35.7133 45.3533C37.5708 46.4748 39.8567 47.1322 42.3216 47.1322V46.1322ZM55.7145 43.9374C54.9996 43.9374 54.3285 44.1602 53.7703 44.4972L54.2872 45.3533C54.7127 45.0963 55.2073 44.9374 55.7145 44.9374V43.9374ZM34.2859 44.9374C34.7931 44.9374 35.2877 45.0963 35.7133 45.3533L36.2301 44.4972C35.672 44.1602 35.0008 43.9374 34.2859 43.9374V44.9374Z" fill="#FEF9FA"/>
</svg>
