<svg width="90" height="88" viewBox="0 0 90 88" fill="none" xmlns="http://www.w3.org/2000/svg">
<path d="M25.7502 56.8332C25.7502 57.1094 25.9741 57.3332 26.2502 57.3332C26.5264 57.3332 26.7502 57.1094 26.7502 56.8332H25.7502ZM63.2502 56.8332C63.2502 57.1094 63.4741 57.3332 63.7502 57.3332C64.0264 57.3332 64.2502 57.1094 64.2502 56.8332H63.2502ZM54.0287 50.0433L54.3078 50.4582L54.0287 50.0433ZM35.9717 50.0433L35.6927 50.4582L35.9717 50.0433ZM45 45.3333C39.0523 45.3333 34.25 40.6217 34.25 34.8333H33.25C33.25 41.1951 38.5213 46.3333 45 46.3333V45.3333ZM55.75 34.8333C55.75 40.6217 50.9477 45.3333 45 45.3333V46.3333C51.4787 46.3333 56.75 41.1951 56.75 34.8333H55.75ZM45 24.3333C50.9477 24.3333 55.75 29.0448 55.75 34.8333H56.75C56.75 28.4715 51.4787 23.3333 45 23.3333V24.3333ZM45 23.3333C38.5213 23.3333 33.25 28.4715 33.25 34.8333H34.25C34.25 29.0448 39.0523 24.3333 45 24.3333V23.3333ZM45 72.8333C28.6969 72.8333 15.5 59.9136 15.5 44H14.5C14.5 60.487 28.166 73.8333 45 73.8333V72.8333ZM74.5 44C74.5 59.9136 61.303 72.8333 45 72.8333V73.8333C61.834 73.8333 75.5 60.487 75.5 44H74.5ZM45 15.1666C61.303 15.1666 74.5 28.0863 74.5 44H75.5C75.5 27.5129 61.834 14.1666 45 14.1666V15.1666ZM45 14.1666C28.166 14.1666 14.5 27.5129 14.5 44H15.5C15.5 28.0863 28.6969 15.1666 45 15.1666V14.1666ZM26.7502 56.8332C26.7502 53.1014 30.0801 49.9999 34.2859 49.9999V48.9999C29.6158 48.9999 25.7502 52.465 25.7502 56.8332H26.7502ZM55.7145 49.9999C59.9204 49.9999 63.2502 53.1014 63.2502 56.8332H64.2502C64.2502 52.465 60.3846 48.9999 55.7145 48.9999V49.9999ZM53.7497 49.6284C52.0551 50.7681 49.9561 51.4447 47.6788 51.4447V52.4447C50.1551 52.4447 52.4483 51.7088 54.3078 50.4582L53.7497 49.6284ZM47.6788 51.4447H42.3216V52.4447H47.6788V51.4447ZM42.3216 51.4447C40.0443 51.4447 37.9454 50.7681 36.2507 49.6284L35.6927 50.4582C37.5521 51.7088 39.8453 52.4447 42.3216 52.4447V51.4447ZM55.7145 48.9999C54.987 48.9999 54.3086 49.2525 53.7497 49.6284L54.3078 50.4582C54.7326 50.1725 55.22 49.9999 55.7145 49.9999V48.9999ZM34.2859 49.9999C34.7804 49.9999 35.2679 50.1725 35.6927 50.4582L36.2507 49.6284C35.6918 49.2525 35.0135 48.9999 34.2859 48.9999V49.9999Z" fill="#FEF9FA"/>
</svg>
