<svg width="90" height="79" viewBox="0 0 90 79" fill="none" xmlns="http://www.w3.org/2000/svg">
<path d="M45 66.3333C45.2761 66.3333 45.5 66.1094 45.5 65.8333C45.5 65.5571 45.2761 65.3333 45 65.3333V66.3333ZM21.6664 63.6143L21.9194 63.183H21.9194L21.6664 63.6143ZM17.528 59.9816L17.9258 59.6788H17.9258L17.528 59.9816ZM68.3335 21.9689L68.0806 22.4002L68.3335 21.9689ZM72.472 25.6016L72.0742 25.9045L72.472 25.6016ZM21.6664 21.9689L21.4135 21.5376L21.6664 21.9689ZM17.528 25.6016L17.9258 25.9045L17.528 25.6016ZM45.7952 15.1454L45.6981 15.6358L45.7952 15.1454ZM52.0683 16.388L52.1654 15.8975L52.0683 16.388ZM67.958 21.4395L67.6215 21.8093L67.958 21.4395ZM28.9253 13.7077L29.0789 14.1835L28.9253 13.7077ZM24.6614 15.9801L24.3485 15.5901L24.6614 15.9801ZM20.3639 22.1871C20.2752 22.4486 20.4152 22.7325 20.6767 22.8212C20.9382 22.91 21.2221 22.7699 21.3109 22.5084L20.3639 22.1871ZM68.4568 22.5833C68.6571 22.7735 68.9735 22.7653 69.1637 22.5651C69.3539 22.3649 69.3457 22.0484 69.1455 21.8582L68.4568 22.5833ZM15 37.8541V37.3541C14.7239 37.3541 14.5 37.578 14.5 37.8541H15ZM15 47.7291H14.5C14.5 48.0053 14.7239 48.2291 15 48.2291V47.7291ZM74.4949 39.5024C74.4963 39.7786 74.7212 40.0013 74.9974 39.9999C75.2735 39.9986 75.4962 39.7736 75.4949 39.4975L74.4949 39.5024ZM52 55.958C51.9999 56.2341 52.2238 56.458 52.4999 56.4581C52.7761 56.4581 52.9999 56.2343 53 55.9581L52 55.958ZM53.7093 51.4993L54.1428 51.7484L54.143 51.7482L53.7093 51.4993ZM57.0843 48.0112L57.3536 48.4325L57.3563 48.4307L57.0843 48.0112ZM71.709 48.9819L71.3785 49.3571L71.3818 49.3599L71.709 48.9819ZM73.8519 50.8743L73.8652 51.3741C73.9985 51.3705 74.1248 51.3139 74.2162 51.2167C74.3075 51.1196 74.3562 50.99 74.3515 50.8567L73.8519 50.8743ZM74.2184 47.0723C74.2087 46.7964 73.9771 46.5805 73.7012 46.5902C73.4252 46.5999 73.2093 46.8315 73.219 47.1075L74.2184 47.0723ZM69.5261 50.4895C69.25 50.4969 69.0322 50.7267 69.0396 51.0027C69.047 51.2787 69.2767 51.4965 69.5528 51.4892L69.5261 50.4895ZM75.5 55.9586C75.5 55.6824 75.2762 55.4585 75.0001 55.4585C74.7239 55.4585 74.5 55.6823 74.5 55.9584L75.5 55.9586ZM73.7906 60.4173L73.3571 60.1681L73.3569 60.1686L73.7906 60.4173ZM70.4157 63.9054L70.1466 63.484L70.1437 63.4858L70.4157 63.9054ZM55.791 62.9347L56.1215 62.5595L56.1187 62.5571L55.791 62.9347ZM53.648 61.0425L53.6347 60.5427C53.5014 60.5463 53.375 60.6029 53.2837 60.7001C53.1924 60.7972 53.1437 60.9268 53.1483 61.0601L53.648 61.0425ZM53.2815 64.8445C53.2912 65.1204 53.5228 65.3363 53.7987 65.3266C54.0747 65.3169 54.2906 65.0853 54.2808 64.8093L53.2815 64.8445ZM57.9738 61.4273C58.2498 61.4199 58.4676 61.1902 58.4603 60.9141C58.4529 60.6381 58.2232 60.4203 57.9471 60.4276L57.9738 61.4273ZM41.25 20.25H48.75V19.25H41.25V20.25ZM45 65.3333H41.25V66.3333H45V65.3333ZM41.25 65.3333C35.9741 65.3333 32.0503 65.3328 28.9714 65.0579C25.8981 64.7835 23.7197 64.2389 21.9194 63.183L21.4135 64.0456C23.3966 65.2087 25.7432 65.7736 28.8825 66.0539C32.0162 66.3337 35.9924 66.3333 41.25 66.3333V65.3333ZM14.5 42.7916C14.5 47.4028 14.4992 50.904 14.8193 53.6661C15.1408 56.4403 15.791 58.5254 17.1301 60.2845L17.9258 59.6788C16.7369 58.1169 16.1232 56.23 15.8127 53.551C15.5008 50.8598 15.5 47.4265 15.5 42.7916H14.5ZM21.9194 63.183C20.3348 62.2536 18.9787 61.062 17.9258 59.6788L17.1301 60.2845C18.2659 61.7766 19.7223 63.0537 21.4135 64.0456L21.9194 63.183ZM48.75 20.25C54.0259 20.25 57.9497 20.2504 61.0286 20.5253C64.1019 20.7998 66.2803 21.3444 68.0806 22.4002L68.5865 21.5376C66.6034 20.3745 64.2568 19.8096 61.1175 19.5293C57.9838 19.2495 54.0076 19.25 48.75 19.25V20.25ZM68.0806 22.4002C69.6651 23.3296 71.0213 24.5213 72.0742 25.9045L72.8699 25.2988C71.734 23.8066 70.2776 22.5295 68.5865 21.5376L68.0806 22.4002ZM41.25 19.25C35.9924 19.25 32.0162 19.2495 28.8825 19.5293C25.7432 19.8096 23.3966 20.3745 21.4135 21.5376L21.9194 22.4002C23.7197 21.3444 25.8981 20.7998 28.9714 20.5253C32.0503 20.2504 35.9741 20.25 41.25 20.25V19.25ZM15.5 42.7916C15.5 38.1568 15.5008 34.7235 15.8127 32.0323C16.1232 29.3532 16.7369 27.4663 17.9258 25.9045L17.1301 25.2988C15.791 27.0579 15.1408 29.143 14.8193 31.9171C14.4992 34.6792 14.5 38.1804 14.5 42.7916H15.5ZM21.4135 21.5376C19.7223 22.5295 18.2659 23.8066 17.1301 25.2988L17.9258 25.9045C18.9787 24.5213 20.3348 23.3296 21.9194 22.4002L21.4135 21.5376ZM45.6981 15.6358L51.9711 16.8784L52.1654 15.8975L45.8924 14.6549L45.6981 15.6358ZM51.9711 16.8784C56.3853 17.7528 59.6635 18.4026 62.174 19.1355C64.6807 19.8672 66.3662 20.6669 67.6215 21.8093L68.2946 21.0697C66.8755 19.7783 65.0213 18.9249 62.4543 18.1755C59.8911 17.4274 56.5616 16.7683 52.1654 15.8975L51.9711 16.8784ZM45.8924 14.6549C41.4959 13.784 38.167 13.1242 35.4808 12.8325C32.7882 12.5401 30.6938 12.6112 28.7716 13.2319L29.0789 14.1835C30.8112 13.6241 32.7466 13.5414 35.3729 13.8266C38.0054 14.1125 41.2842 14.7615 45.6981 15.6358L45.8924 14.6549ZM28.7716 13.2319C27.1347 13.7605 25.6312 14.5608 24.3485 15.5901L24.9744 16.3701C26.1574 15.4207 27.5517 14.6766 29.0789 14.1835L28.7716 13.2319ZM21.3109 22.5084C22.3263 19.5164 23.3458 17.677 24.9744 16.3701L24.3485 15.5901C22.4967 17.0762 21.4 19.1343 20.3639 22.1871L21.3109 22.5084ZM67.6215 21.8093C67.9612 22.1184 68.2359 22.3735 68.4568 22.5833L69.1455 21.8582C68.9182 21.6423 68.638 21.3823 68.2946 21.0697L67.6215 21.8093ZM15 38.3541H24.375V37.3541H15V38.3541ZM24.375 47.2291H15V48.2291H24.375V47.2291ZM15.5 47.7291V37.8541H14.5V47.7291H15.5ZM29.5 42.7916C29.5 45.1831 27.2687 47.2291 24.375 47.2291V48.2291C27.6945 48.2291 30.5 45.8539 30.5 42.7916H29.5ZM24.375 38.3541C27.2687 38.3541 29.5 40.4001 29.5 42.7916H30.5C30.5 39.7293 27.6945 37.3541 24.375 37.3541V38.3541ZM75.4949 39.4975C75.4598 32.4374 75.198 28.3572 72.8699 25.2988L72.0742 25.9045C74.1628 28.6482 74.4594 32.3576 74.4949 39.5024L75.4949 39.4975ZM53 55.9581C53.0002 54.4994 53.3901 53.0579 54.1428 51.7484L53.2759 51.2501C52.4388 52.7064 52.0002 54.319 52 55.958L53 55.9581ZM54.143 51.7482C54.8935 50.4408 55.9922 49.3026 57.3536 48.4325L56.815 47.5899C55.3265 48.5413 54.1114 49.7946 53.2757 51.2503L54.143 51.7482ZM57.3563 48.4307C59.4271 47.0883 61.9873 46.4389 64.5691 46.6103L64.6353 45.6125C61.8481 45.4275 59.0722 46.1266 56.8123 47.5916L57.3563 48.4307ZM64.5691 46.6103C67.1509 46.7816 69.5665 47.7611 71.3785 49.3571L72.0394 48.6066C70.0512 46.8554 67.4225 45.7975 64.6353 45.6125L64.5691 46.6103ZM71.3818 49.3599C71.7634 49.6902 72.7925 50.5738 73.5119 51.2409L74.1918 50.5077C73.4566 49.8258 72.4107 48.9279 72.0362 48.6038L71.3818 49.3599ZM73.219 47.1075L73.3522 50.8919L74.3515 50.8567L74.2184 47.0723L73.219 47.1075ZM73.8385 50.3745L69.5261 50.4895L69.5528 51.4892L73.8652 51.3741L73.8385 50.3745ZM74.5 55.9584C74.4998 57.4171 74.1098 58.8587 73.3571 60.1681L74.2241 60.6665C75.0612 59.2102 75.4997 57.5975 75.5 55.9586L74.5 55.9584ZM73.3569 60.1686C72.607 61.4762 71.5083 62.6143 70.1466 63.484L70.6848 64.3268C72.1739 63.3758 73.3893 62.1222 74.2244 60.666L73.3569 60.1686ZM70.1437 63.4858C68.0728 64.8283 65.5127 65.4777 62.9309 65.3063L62.8646 66.3041C65.6518 66.4891 68.4278 65.79 70.6877 64.3249L70.1437 63.4858ZM62.9309 65.3063C60.3491 65.1349 57.9335 64.1555 56.1215 62.5595L55.4605 63.3099C57.4488 65.0611 60.0775 66.1191 62.8646 66.3041L62.9309 65.3063ZM56.1187 62.5571C55.7363 62.2253 54.7071 61.3433 53.9882 60.676L53.3079 61.409C54.0428 62.091 55.0905 62.9889 55.4633 63.3123L56.1187 62.5571ZM54.2808 64.8093L54.1477 61.025L53.1483 61.0601L53.2815 64.8445L54.2808 64.8093ZM53.6614 61.5424L57.9738 61.4273L57.9471 60.4276L53.6347 60.5427L53.6614 61.5424Z" fill="#FEF9FA"/>
</svg>
